<svg id="visual" viewBox="0 0 900 300" width="900" height="300" xmlns="http://www.w3.org/2000/svg" xmlns:xlink="http://www.w3.org/1999/xlink" version="1.1"><path d="M0 162L21.5 161.7C43 161.3 86 160.7 128.8 167.7C171.7 174.7 214.3 189.3 257.2 196.3C300 203.3 343 202.7 385.8 202.7C428.7 202.7 471.3 203.3 514.2 196.5C557 189.7 600 175.3 642.8 175.5C685.7 175.7 728.3 190.3 771.2 192.7C814 195 857 185 878.5 180L900 175L900 301L878.5 301C857 301 814 301 771.2 301C728.3 301 685.7 301 642.8 301C600 301 557 301 514.2 301C471.3 301 428.7 301 385.8 301C343 301 300 301 257.2 301C214.3 301 171.7 301 128.8 301C86 301 43 301 21.5 301L0 301Z" fill="#fa7268"></path><path d="M0 197L21.5 193.8C43 190.7 86 184.3 128.8 187.5C171.7 190.7 214.3 203.3 257.2 204.2C300 205 343 194 385.8 196.2C428.7 198.3 471.3 213.7 514.2 214C557 214.3 600 199.7 642.8 194.5C685.7 189.3 728.3 193.7 771.2 198.2C814 202.7 857 207.3 878.5 209.7L900 212L900 301L878.5 301C857 301 814 301 771.2 301C728.3 301 685.7 301 642.8 301C600 301 557 301 514.2 301C471.3 301 428.7 301 385.8 301C343 301 300 301 257.2 301C214.3 301 171.7 301 128.8 301C86 301 43 301 21.5 301L0 301Z" fill="#f7665c"></path><path d="M0 207L21.5 212.8C43 218.7 86 230.3 128.8 235.5C171.7 240.7 214.3 239.3 257.2 239.3C300 239.3 343 240.7 385.8 233.8C428.7 227 471.3 212 514.2 206.2C557 200.3 600 203.7 642.8 203.7C685.7 203.7 728.3 200.3 771.2 202.2C814 204 857 211 878.5 214.5L900 218L900 301L878.5 301C857 301 814 301 771.2 301C728.3 301 685.7 301 642.8 301C600 301 557 301 514.2 301C471.3 301 428.7 301 385.8 301C343 301 300 301 257.2 301C214.3 301 171.7 301 128.8 301C86 301 43 301 21.5 301L0 301Z" fill="#f3594f"></path><path d="M0 228L21.5 227C43 226 86 224 128.8 225.5C171.7 227 214.3 232 257.2 237.8C300 243.7 343 250.3 385.8 248.3C428.7 246.3 471.3 235.7 514.2 235.7C557 235.7 600 246.3 642.8 245.2C685.7 244 728.3 231 771.2 227C814 223 857 228 878.5 230.5L900 233L900 301L878.5 301C857 301 814 301 771.2 301C728.3 301 685.7 301 642.8 301C600 301 557 301 514.2 301C471.3 301 428.7 301 385.8 301C343 301 300 301 257.2 301C214.3 301 171.7 301 128.8 301C86 301 43 301 21.5 301L0 301Z" fill="#ef4b43"></path><path d="M0 248L21.5 247.7C43 247.3 86 246.7 128.8 250.7C171.7 254.7 214.3 263.3 257.2 262.7C300 262 343 252 385.8 251.8C428.7 251.7 471.3 261.3 514.2 262C557 262.7 600 254.3 642.8 249C685.7 243.7 728.3 241.3 771.2 242.3C814 243.3 857 247.7 878.5 249.8L900 252L900 301L878.5 301C857 301 814 301 771.2 301C728.3 301 685.7 301 642.8 301C600 301 557 301 514.2 301C471.3 301 428.7 301 385.8 301C343 301 300 301 257.2 301C214.3 301 171.7 301 128.8 301C86 301 43 301 21.5 301L0 301Z" fill="#ea3c37"></path><path d="M0 278L21.5 275.2C43 272.3 86 266.7 128.8 264.2C171.7 261.7 214.3 262.3 257.2 263.2C300 264 343 265 385.8 266.5C428.7 268 471.3 270 514.2 269.2C557 268.3 600 264.7 642.8 265.2C685.7 265.7 728.3 270.3 771.2 271.5C814 272.7 857 270.3 878.5 269.2L900 268L900 301L878.5 301C857 301 814 301 771.2 301C728.3 301 685.7 301 642.8 301C600 301 557 301 514.2 301C471.3 301 428.7 301 385.8 301C343 301 300 301 257.2 301C214.3 301 171.7 301 128.8 301C86 301 43 301 21.5 301L0 301Z" fill="#e52a2a"></path></svg>